 <svg  version="1.0" xmlns="http://www.w3.org/2000/svg"  width="185.000000pt" height="185.000000pt" viewBox="0 0 185.000000 185.000000"  preserveAspectRatio="xMidYMid meet">  <g transform="translate(0.000000,185.000000) scale(0.100000,-0.100000)" fill="#e69100" stroke="none"> <path d="M844 1809 c-196 -18 -367 -97 -517 -239 -119 -111 -194 -235 -243 -397 -24 -77 -27 -106 -28 -233 -1 -160 12 -233 63 -359 43 -105 87 -174 166 -259 113 -122 219 -190 372 -241 359 -120 758 -6 989 282 64 80 143 238 169 337 26 99 31 287 11 392 -41 218 -155 407 -321 532 -193 146 -413 208 -661 185z m-174 -89 c0 -5 -3 -9 -7 -8 -5 1 -19 -3 -33 -10 -14 -6 -40 -16 -57 -24 -18 -7 -33 -17 -33 -22 0 -4 -6 -6 -14 -3 -8 3 -16 3 -18 -1 -2 -4 -23 -22 -48 -40 -45 -33 -149 -130 -183 -172 -10 -12 -35 -52 -55 -88 -20 -37 -41 -70 -46 -74 -6 -4 -8 -8 -3 -8 4 0 0 -17 -9 -37 -22 -53 -44 -126 -39 -131 2 -3 -1 -14 -7 -26 -7 -11 -11 -24 -10 -28 1 -5 -3 -8 -8 -8 -13 0 -13 17 -1 25 5 3 8 18 6 33 -1 15 2 33 9 41 6 7 11 19 11 25 1 28 17 76 26 76 5 0 8 3 8 8 -5 27 3 52 16 52 8 0 14 3 13 8 -3 16 15 61 23 56 5 -3 9 4 9 15 0 12 5 21 10 21 6 0 10 6 10 13 0 6 12 26 28 42 15 17 46 52 70 77 23 26 42 45 42 42 0 -3 7 1 15 9 26 26 152 107 167 107 8 0 19 5 26 12 7 7 12 9 12 4 0 -4 10 0 22 8 26 18 48 21 48 6z m484 -20 c355 -91 596 -403 597 -768 1 -199 -57 -364 -181 -521 -89 -112 -268 -227 -415 -267 -91 -25 -284 -30 -370 -10 -274 64 -482 234 -583 479 -125 301 -55 659 172 881 208 202 498 279 780 206z m301 -90 c-4 -6 -1 -10 5 -10 21 0 148 -111 153 -133 1 -7 10 -18 20 -25 9 -7 17 -20 17 -28 0 -8 6 -14 13 -14 8 0 7 -3 -3 -10 -14 -9 -33 6 -25 20 2 4 -9 20 -25 35 -16 15 -27 32 -24 37 3 4 1 8 -4 8 -5 0 -32 23 -60 50 -28 28 -55 50 -59 50 -10 1 -63 47 -63 55 0 3 14 -2 30 -10 17 -9 28 -20 25 -25z m245 -270 c14 -22 25 -44 25 -48 1 -4 6 -17 13 -29 7 -13 9 -23 5 -23 -4 0 -1 -5 7 -10 10 -7 11 -10 2 -10 -6 0 -25 27 -41 60 -16 33 -27 60 -24 60 4 0 -2 9 -12 20 -10 11 -14 20 -9 20 5 0 20 -18 34 -40z m96 -302 c11 -52 11 -173 -1 -207 -8 -25 -10 -8 -9 82 1 61 -3 122 -7 135 -5 12 -5 22 0 22 5 0 13 -15 17 -32z m-1693 -69 c-11 -11 -16 39 -5 55 4 6 8 -1 10 -18 2 -16 0 -32 -5 -37z m22 -226 c-1 -15 1 -32 5 -38 4 -5 14 -32 23 -60 24 -77 46 -125 57 -125 5 0 7 -7 4 -15 -4 -8 -1 -15 5 -15 6 0 11 -6 11 -12 0 -7 18 -33 40 -58 22 -24 42 -52 45 -62 3 -9 14 -19 23 -21 12 -3 11 -5 -5 -6 -13 0 -23 4 -23 9 0 6 -13 25 -29 43 -16 17 -30 36 -29 41 0 5 -4 12 -9 15 -18 12 -52 68 -46 75 3 3 2 6 -4 6 -5 0 -16 19 -23 43 -8 23 -17 47 -21 52 -15 21 -49 152 -41 159 10 11 19 -4 17 -31z m1635 -97 c0 -8 -7 -22 -16 -30 -8 -9 -13 -20 -9 -25 3 -5 1 -12 -5 -16 -5 -3 -10 -13 -10 -20 0 -19 -75 -141 -109 -178 -67 -73 -105 -107 -158 -143 -32 -22 -61 -43 -65 -49 -5 -7 -8 -7 -8 0 0 6 -4 4 -8 -3 -5 -7 -17 -14 -28 -16 -10 -2 -41 -16 -68 -30 -27 -14 -56 -26 -65 -25 -9 0 -1 6 17 13 18 6 30 15 25 20 -4 4 -3 6 2 5 6 -2 20 2 32 9 12 6 31 13 44 15 12 2 27 10 33 18 6 8 18 15 26 17 8 2 20 9 25 15 6 7 26 23 47 35 20 12 39 29 42 38 3 8 10 12 16 9 5 -3 10 -3 10 2 0 14 47 63 54 56 3 -3 6 1 6 11 0 9 7 19 15 22 8 4 15 10 15 15 0 5 20 38 45 74 24 36 42 65 38 65 -3 0 -1 6 4 13 5 6 15 31 23 55 13 41 30 57 30 28z m-1383 -345 c28 -26 152 -111 163 -111 4 0 10 -6 13 -14 5 -11 0 -12 -23 -3 -16 6 -27 15 -24 19 3 4 1 8 -5 8 -15 0 -111 62 -111 71 0 5 -6 9 -13 9 -7 0 -18 9 -25 20 -16 25 -2 26 25 1z"/> <path d="M840 1550 c-226 -31 -413 -153 -485 -315 -32 -71 -39 -134 -21 -184 13 -40 13 -43 -10 -68 -45 -49 -44 -139 2 -189 22 -23 24 -31 15 -46 -6 -10 -11 -44 -11 -75 0 -77 33 -146 94 -200 83 -73 91 -74 537 -71 394 3 394 3 443 27 122 61 194 205 152 306 -16 38 -16 39 10 66 48 50 42 155 -10 198 -13 11 -13 16 1 48 39 95 -40 271 -165 366 -143 108 -363 163 -552 137z m315 -55 c16 -3 32 -9 35 -12 3 -3 -5 -3 -17 0 -14 3 -23 1 -23 -6 0 -8 -4 -7 -9 2 -5 7 -20 14 -35 14 -14 0 -26 3 -26 7 0 8 19 7 75 -5z m-43 -44 c163 -42 293 -135 344 -246 37 -80 40 -114 14 -148 l-21 -27 -499 0 c-474 0 -499 1 -521 19 -68 54 19 235 153 322 141 91 358 124 530 80z m-560 -61 c-45 -33 -73 -41 -52 -15 7 8 18 15 25 15 7 0 18 7 25 15 7 8 19 15 28 15 8 0 -4 -13 -26 -30z m805 7 c4 -8 17 -19 28 -25 14 -8 15 -11 5 -11 -8 0 -28 11 -45 24 -22 18 -26 25 -13 25 9 0 21 -6 25 -13z m108 -119 c5 -15 -4 -7 -24 19 -17 24 -31 45 -31 47 0 13 49 -46 55 -66z m53 -255 c1 -16 11 -40 22 -54 29 -40 28 -95 -3 -155 -14 -28 -24 -53 -22 -56 10 -10 21 -88 14 -99 -6 -11 -14 -8 -34 11 l-25 24 -306 -1 -305 -1 43 31 c24 18 45 35 46 40 2 4 20 15 40 23 30 14 77 16 257 16 124 0 231 4 246 9 55 21 66 97 21 139 -26 24 -32 25 -147 24 -127 0 -165 3 -165 16 0 10 20 8 39 -4 9 -6 12 -5 8 1 -8 13 116 12 125 -1 5 -7 8 -7 8 2 0 7 5 10 11 6 6 -3 15 0 20 7 6 10 9 10 9 2 0 -12 29 -7 40 6 3 4 16 14 30 23 14 9 25 17 25 17 0 1 2 -11 3 -26z m-1101 -2 c12 -11 24 -17 27 -14 3 4 6 2 6 -3 0 -5 27 -9 60 -9 33 0 60 4 60 8 0 4 8 4 18 -1 9 -5 25 -8 35 -7 9 2 17 -1 17 -7 0 -6 -6 -8 -14 -5 -8 3 -17 3 -20 0 -3 -4 -51 -7 -106 -7 -93 -1 -101 -3 -126 -27 -29 -29 -36 -58 -20 -78 9 -12 8 -13 -4 -7 -8 5 -1 -6 17 -24 32 -34 32 -34 145 -37 132 -4 175 -14 212 -48 14 -13 26 -21 26 -18 0 3 9 -2 20 -12 11 -10 20 -21 20 -25 0 -5 -81 -8 -181 -8 -175 1 -229 -8 -229 -34 0 -4 -5 -8 -11 -8 -5 0 -8 4 -4 9 3 5 1 12 -5 16 -6 4 -8 10 -5 15 11 18 22 100 14 100 -5 0 -9 5 -9 11 0 6 -9 22 -19 35 -23 29 -18 86 10 126 11 14 19 38 19 52 0 31 18 34 47 7z m526 -25 c67 -1 137 1 155 5 18 4 35 3 38 -3 3 -5 17 -7 30 -4 14 4 24 2 24 -4 0 -13 18 -12 -282 -14 -168 -1 -257 2 -255 9 2 6 35 9 75 9 40 -1 72 3 72 8 0 5 5 6 10 3 6 -4 66 -8 133 -9z m561 -62 c21 -20 20 -63 -1 -86 -15 -16 -36 -18 -237 -18 -122 0 -238 -5 -258 -10 -20 -6 -61 -28 -90 -50 -67 -51 -99 -52 -159 -5 -58 44 -139 65 -258 65 -106 0 -131 12 -131 61 0 60 -9 59 582 59 474 0 538 -2 552 -16z m-25 -306 c-12 -45 -38 -77 -88 -113 l-43 -30 -386 -3 -387 -3 -54 28 c-58 30 -81 54 -106 116 l-15 37 544 0 545 0 -10 -32z"/> <path d="M973 1393 c-21 -8 -15 -51 8 -63 30 -17 63 -9 67 16 4 30 -43 60 -75 47z"/> <path d="M746 1329 c-33 -26 -32 -62 2 -67 46 -7 87 66 46 82 -21 8 -18 9 -48 -15z"/> <path d="M1157 1279 c-23 -13 -22 -34 3 -59 22 -22 66 -27 73 -7 12 38 -41 85 -76 66z"/> <path d="M905 1219 c-20 -32 33 -87 70 -73 21 8 19 47 -3 67 -21 19 -57 22 -67 6z"/> </g> </svg> 